<svg id="svg" version="1.1" xmlns="http://www.w3.org/2000/svg" xmlns:xlink="http://www.w3.org/1999/xlink" width="400" height="152.4603836530442" viewBox="0, 0, 400,152.4603836530442"><g id="svgg"><path id="path0" d="M157.910 10.875 C 157.867 10.990,157.850 30.171,157.874 53.500 L 157.917 95.917 200.542 95.959 L 243.167 96.001 243.167 53.334 L 243.167 10.667 200.578 10.667 C 166.661 10.667,157.973 10.709,157.910 10.875 M207.167 25.000 L 207.167 31.000 205.500 31.000 L 203.833 31.000 203.833 25.000 L 203.833 19.000 205.500 19.000 L 207.167 19.000 207.167 25.000 M201.982 22.229 C 202.116 22.390,202.159 23.707,202.128 26.687 L 202.083 30.917 200.375 30.964 L 198.667 31.012 198.667 26.617 C 198.667 24.200,198.717 22.172,198.778 22.111 C 199.002 21.887,201.784 21.989,201.982 22.229 M196.917 27.917 L 196.917 30.917 195.208 30.964 L 193.500 31.012 193.500 28.034 C 193.500 24.529,193.338 24.810,195.325 24.869 L 196.917 24.917 196.917 27.917 M201.240 35.856 C 203.981 36.368,205.698 37.253,206.355 38.490 C 206.758 39.251,206.934 39.393,207.917 39.748 C 211.484 41.038,212.700 44.129,211.115 47.875 C 210.764 48.704,210.657 48.666,210.174 47.539 C 208.683 44.062,206.560 42.074,205.619 43.274 C 204.036 45.291,202.943 45.733,199.637 45.691 C 197.996 45.670,196.986 45.722,196.919 45.829 C 196.861 45.923,196.668 46.000,196.490 46.000 C 196.312 46.000,196.167 46.075,196.167 46.167 C 196.167 46.264,195.594 46.333,194.781 46.333 C 193.269 46.333,192.264 46.685,191.185 47.593 C 190.456 48.207,190.354 48.053,190.044 45.869 C 189.113 39.296,194.392 34.575,201.240 35.856 M207.106 45.292 C 207.712 46.118,208.633 47.890,209.252 49.417 L 209.860 50.917 209.781 53.250 C 209.697 55.760,209.306 57.721,208.788 58.237 C 208.625 58.399,208.389 58.731,208.263 58.974 C 207.828 59.812,205.896 61.488,204.741 62.029 C 199.493 64.485,193.790 62.132,191.730 56.661 C 191.195 55.238,191.190 50.150,191.723 49.345 C 192.652 47.940,194.908 47.334,199.219 47.332 C 202.897 47.329,204.018 47.015,205.667 45.525 C 206.562 44.716,206.671 44.698,207.106 45.292 M175.390 46.809 C 178.408 48.178,180.309 51.671,179.687 54.707 C 178.224 61.849,168.946 63.208,165.754 56.748 C 162.733 50.634,169.174 43.991,175.390 46.809 M231.000 46.545 C 238.833 49.477,236.981 60.750,228.667 60.750 C 220.536 60.750,218.425 49.635,226.000 46.704 C 227.498 46.124,229.689 46.055,231.000 46.545 M227.944 47.944 C 227.883 48.006,227.832 49.299,227.831 50.819 L 227.828 53.583 226.167 54.667 C 224.384 55.829,224.289 55.985,224.898 56.745 L 225.294 57.240 227.397 55.847 L 229.500 54.453 229.500 51.143 L 229.500 47.833 228.778 47.833 C 228.381 47.833,228.006 47.883,227.944 47.944 M171.619 48.103 C 171.554 48.169,171.500 48.463,171.500 48.758 C 171.500 49.174,171.370 49.393,170.916 49.739 C 168.936 51.250,169.515 53.605,172.083 54.480 C 172.927 54.768,173.334 55.123,173.331 55.567 C 173.323 56.585,171.876 56.921,171.575 55.975 C 171.470 55.644,170.115 55.513,169.928 55.816 C 169.754 56.097,170.332 57.151,170.916 57.617 C 171.397 58.001,171.500 58.194,171.500 58.708 L 171.500 59.333 172.333 59.333 L 173.167 59.333 173.167 58.693 C 173.167 58.180,173.246 58.018,173.566 57.871 C 175.803 56.852,175.196 53.681,172.633 52.991 C 171.393 52.657,171.034 51.951,171.742 51.242 C 172.270 50.715,172.434 50.727,173.000 51.333 C 173.504 51.873,174.595 52.048,174.760 51.616 C 174.907 51.233,174.355 50.200,173.761 49.747 C 173.319 49.410,173.173 49.166,173.134 48.696 C 173.084 48.091,172.039 47.683,171.619 48.103 M189.833 52.583 C 189.833 53.938,189.686 54.185,189.193 53.657 C 188.595 53.014,188.639 51.869,189.282 51.380 C 189.722 51.046,189.833 51.290,189.833 52.583 M211.973 51.758 C 212.338 52.559,212.109 53.667,211.577 53.667 C 211.386 53.667,211.333 53.413,211.333 52.500 C 211.333 51.244,211.599 50.936,211.973 51.758 M203.333 65.718 L 203.333 67.038 202.049 69.353 C 200.599 71.965,200.551 71.997,199.873 70.792 C 199.262 69.704,198.194 67.756,197.894 67.181 C 197.688 66.788,197.567 64.655,197.740 64.482 C 197.781 64.442,199.056 64.406,200.573 64.403 L 203.333 64.397 203.333 65.718 M196.940 68.667 C 197.261 69.262,197.696 70.050,197.907 70.417 C 198.997 72.315,199.509 73.350,199.425 73.486 C 199.240 73.785,195.541 76.833,195.363 76.833 C 195.179 76.833,194.892 75.968,194.064 72.917 C 193.316 70.157,193.284 70.365,194.690 68.842 C 196.140 67.271,196.186 67.268,196.940 68.667 M206.416 68.833 L 207.741 70.165 207.437 71.374 C 207.270 72.039,206.957 73.221,206.742 74.000 C 206.527 74.779,206.269 75.735,206.169 76.125 C 205.912 77.127,205.576 76.957,202.667 74.348 C 202.254 73.979,201.860 73.674,201.792 73.671 C 201.523 73.661,201.692 73.096,202.250 72.144 C 202.571 71.597,202.833 71.121,202.833 71.088 C 202.833 71.054,203.208 70.377,203.667 69.583 C 204.125 68.790,204.500 68.086,204.500 68.020 C 204.500 67.877,204.859 67.500,204.996 67.500 C 205.048 67.500,205.687 68.100,206.416 68.833 M191.869 77.252 C 191.934 80.368,192.034 83.454,192.090 84.111 L 192.193 85.306 194.695 87.278 C 196.072 88.363,197.335 89.362,197.503 89.500 C 197.670 89.638,198.297 90.125,198.897 90.583 C 199.496 91.042,199.965 91.492,199.938 91.583 C 199.843 91.908,181.344 91.888,181.219 91.563 C 181.125 91.317,181.209 90.700,181.664 88.333 C 181.743 87.921,181.894 87.096,182.000 86.500 C 182.106 85.904,182.256 85.079,182.333 84.667 C 182.411 84.254,182.561 83.429,182.667 82.833 C 182.772 82.237,182.922 81.412,183.000 81.000 C 183.078 80.587,183.228 79.762,183.333 79.167 C 183.439 78.571,183.591 77.746,183.672 77.333 C 183.753 76.921,183.915 76.032,184.032 75.359 C 184.265 74.019,184.308 73.974,185.833 73.445 C 186.246 73.302,187.446 72.873,188.500 72.491 C 189.554 72.110,190.604 71.737,190.833 71.662 C 191.784 71.350,191.740 71.109,191.869 77.252 M211.292 72.001 C 212.868 72.600,213.897 72.975,215.169 73.415 C 215.859 73.654,216.519 73.909,216.636 73.981 C 216.764 74.060,217.216 76.066,217.751 78.932 C 218.247 81.582,218.736 84.087,218.839 84.500 C 218.942 84.912,219.089 85.775,219.165 86.417 C 219.242 87.058,219.389 88.033,219.493 88.583 C 219.991 91.232,220.022 91.550,219.800 91.692 C 219.481 91.895,201.289 91.789,201.231 91.583 C 201.205 91.492,202.898 90.067,204.993 88.417 C 207.088 86.767,208.855 85.304,208.919 85.167 C 209.017 84.957,209.291 76.452,209.324 72.604 L 209.333 71.458 209.875 71.564 C 210.173 71.621,210.810 71.818,211.292 72.001 M201.615 75.516 C 202.627 76.378,202.864 76.681,202.751 76.975 C 202.701 77.104,202.546 77.781,202.405 78.480 C 201.997 80.505,202.166 80.333,200.582 80.333 C 198.946 80.333,199.126 80.522,198.672 78.333 L 198.309 76.583 199.280 75.712 C 200.453 74.660,200.595 74.648,201.615 75.516 M207.429 84.083 C 207.344 84.426,205.136 86.250,204.806 86.250 C 204.625 86.250,204.431 85.602,204.007 83.583 C 203.892 83.033,203.730 82.366,203.649 82.100 C 203.449 81.452,203.461 80.831,203.692 79.877 C 203.797 79.441,203.950 78.802,204.032 78.458 C 204.219 77.665,204.211 77.663,205.492 78.752 C 206.790 79.856,206.710 79.849,206.978 78.875 C 207.098 78.440,207.246 77.971,207.307 77.833 C 207.434 77.544,207.552 83.584,207.429 84.083 M193.967 78.387 C 194.077 78.691,194.167 79.062,194.167 79.210 C 194.167 79.782,194.553 79.660,195.615 78.754 C 196.505 77.994,196.756 77.855,196.915 78.031 C 197.174 78.317,197.674 80.999,197.564 81.516 C 197.292 82.802,196.842 84.788,196.631 85.634 C 196.418 86.488,196.401 86.484,194.876 85.261 L 193.717 84.331 193.609 82.556 C 193.369 78.642,193.501 77.101,193.967 78.387 M202.327 83.333 C 202.643 84.550,202.798 85.238,203.019 86.399 L 203.238 87.549 202.638 88.066 C 202.309 88.351,201.699 88.828,201.282 89.126 L 200.525 89.669 199.279 88.679 C 197.767 87.478,197.777 87.492,197.988 86.712 C 198.081 86.366,198.312 85.408,198.501 84.583 C 198.691 83.758,198.878 82.990,198.917 82.875 C 198.968 82.728,199.455 82.667,200.571 82.667 L 202.153 82.667 202.327 83.333 M208.573 87.400 C 208.518 87.620,208.497 87.976,208.528 88.191 L 208.583 88.583 211.917 88.583 L 215.250 88.583 215.305 88.191 C 215.336 87.976,215.316 87.620,215.261 87.400 L 215.160 87.000 211.917 87.000 L 208.673 87.000 208.573 87.400 " stroke="none" fill="#060606" fill-rule="evenodd"></path><path id="path1" d="M0.000 76.167 L 0.000 152.333 200.000 152.333 L 400.000 152.333 400.000 76.167 L 400.000 0.000 200.000 0.000 L 0.000 0.000 0.000 76.167 M243.333 53.334 L 243.333 96.001 200.542 95.959 L 157.750 95.917 157.707 53.500 C 157.684 30.171,157.700 10.990,157.744 10.875 C 157.807 10.709,166.527 10.667,200.578 10.667 L 243.333 10.667 243.333 53.334 M198.000 36.000 C 198.000 36.092,197.817 36.167,197.593 36.167 C 197.369 36.167,197.140 36.242,197.083 36.333 C 197.027 36.425,196.722 36.500,196.407 36.500 C 196.091 36.500,195.833 36.575,195.833 36.667 C 195.833 36.758,195.646 36.833,195.417 36.833 C 195.053 36.833,195.000 36.906,195.000 37.407 C 195.000 38.144,194.700 38.328,194.301 37.835 C 193.857 37.286,191.333 39.066,191.333 39.928 C 191.333 40.059,191.258 40.167,191.167 40.167 C 191.075 40.167,191.000 40.312,191.000 40.490 C 191.000 40.668,190.925 40.860,190.833 40.917 C 190.572 41.078,190.638 42.026,190.933 42.351 C 191.159 42.601,191.169 42.739,190.998 43.255 C 190.787 43.897,190.578 43.863,190.453 43.167 C 190.412 42.938,190.370 43.538,190.359 44.500 C 190.333 46.689,190.598 47.660,191.095 47.198 C 191.272 47.033,191.660 46.790,191.958 46.658 C 192.256 46.527,192.500 46.362,192.500 46.293 C 192.500 46.223,193.287 46.167,194.250 46.167 C 195.306 46.167,196.000 46.101,196.000 46.000 C 196.000 45.908,196.150 45.833,196.333 45.833 C 196.517 45.833,196.667 45.764,196.667 45.679 C 196.667 45.594,197.098 45.472,197.625 45.407 C 198.152 45.343,198.798 45.182,199.060 45.049 C 199.630 44.758,200.410 44.893,200.270 45.257 C 200.197 45.448,200.338 45.500,200.922 45.500 C 201.473 45.500,201.667 45.435,201.667 45.250 C 201.667 45.094,201.824 45.000,202.083 45.000 C 202.313 45.000,202.500 44.920,202.500 44.822 C 202.500 44.717,202.644 44.690,202.853 44.756 C 203.464 44.950,204.702 44.106,205.355 43.049 C 205.842 42.261,206.478 42.305,207.706 43.211 C 208.232 43.599,208.663 44.014,208.664 44.133 C 208.668 44.442,209.388 45.121,209.628 45.041 C 209.771 44.993,209.800 45.123,209.728 45.487 C 209.662 45.817,209.692 46.000,209.813 46.000 C 209.916 46.000,210.000 46.150,210.000 46.333 C 210.000 46.517,210.075 46.667,210.167 46.667 C 210.258 46.667,210.333 46.817,210.333 47.000 C 210.333 47.183,210.408 47.333,210.500 47.333 C 210.592 47.333,210.672 47.502,210.680 47.708 C 210.699 48.276,211.305 46.526,211.320 45.857 C 211.330 45.434,211.274 45.320,211.092 45.390 C 210.803 45.501,210.621 45.029,210.692 44.351 C 210.720 44.089,210.657 43.772,210.552 43.646 C 210.293 43.333,210.472 42.454,210.771 42.568 C 211.699 42.925,209.837 41.050,208.735 40.519 C 207.290 39.823,207.212 39.797,206.877 39.903 C 206.676 39.967,206.465 39.908,206.336 39.754 C 206.221 39.614,206.036 39.500,205.925 39.500 C 205.541 39.500,205.007 38.760,205.109 38.371 C 205.205 38.002,205.500 37.848,205.500 38.167 C 205.500 38.258,205.588 38.333,205.696 38.333 C 205.803 38.333,205.715 38.145,205.499 37.915 C 205.246 37.646,204.998 37.531,204.804 37.593 C 204.579 37.664,204.528 37.622,204.602 37.428 C 204.667 37.258,204.609 37.167,204.434 37.167 C 204.287 37.167,204.167 37.242,204.167 37.333 C 204.167 37.612,203.374 37.520,202.805 37.174 C 202.319 36.878,202.299 36.836,202.593 36.723 C 202.965 36.579,202.319 36.369,201.042 36.217 C 200.652 36.171,200.333 36.066,200.333 35.983 C 200.333 35.901,199.808 35.833,199.167 35.833 C 198.500 35.833,198.000 35.905,198.000 36.000 M196.420 39.171 C 196.656 39.431,196.680 39.553,196.528 39.706 C 196.285 39.948,195.557 39.311,195.740 39.017 C 195.904 38.751,196.075 38.789,196.420 39.171 M208.095 40.500 C 208.226 40.500,208.333 40.575,208.333 40.667 C 208.333 40.758,208.465 40.839,208.625 40.846 C 208.822 40.855,208.844 40.888,208.694 40.949 C 208.535 41.012,208.628 41.200,209.016 41.600 C 209.315 41.909,209.505 42.217,209.438 42.284 C 209.370 42.352,209.256 42.311,209.184 42.195 C 209.112 42.078,208.952 42.005,208.828 42.033 C 208.704 42.061,208.572 41.938,208.533 41.761 C 208.495 41.584,208.175 41.162,207.823 40.823 C 207.470 40.484,207.225 40.164,207.277 40.112 C 207.330 40.059,207.482 40.125,207.615 40.258 C 207.748 40.391,207.964 40.500,208.095 40.500 M198.740 40.823 C 199.077 41.195,198.962 41.500,198.485 41.500 C 198.120 41.500,197.913 41.134,198.060 40.750 C 198.189 40.414,198.390 40.435,198.740 40.823 M203.583 41.333 C 203.503 41.464,203.407 41.473,203.296 41.362 C 203.204 41.271,203.183 41.108,203.250 41.000 C 203.331 40.870,203.427 40.860,203.538 40.971 C 203.629 41.063,203.650 41.226,203.583 41.333 M192.866 44.281 C 193.478 44.868,193.457 45.052,192.792 44.912 C 192.091 44.765,191.942 44.612,192.078 44.183 C 192.221 43.732,192.303 43.742,192.866 44.281 M205.826 45.591 C 204.401 47.062,202.937 47.499,199.423 47.503 C 195.311 47.509,193.436 47.921,192.219 49.087 L 191.500 49.776 191.506 52.430 C 191.516 56.952,192.655 59.508,195.465 61.311 C 199.653 63.998,206.594 62.489,208.357 58.507 C 208.475 58.239,208.706 57.985,208.870 57.942 C 209.095 57.883,209.167 57.696,209.167 57.171 C 209.167 56.790,209.238 56.345,209.325 56.181 C 209.576 55.713,209.580 50.676,209.331 50.083 C 209.215 49.808,209.011 49.321,208.879 49.000 C 208.129 47.185,206.843 45.000,206.524 45.000 C 206.455 45.000,206.141 45.266,205.826 45.591 M189.211 51.704 C 188.864 52.138,188.818 52.654,189.082 53.164 C 189.457 53.890,189.671 53.641,189.596 52.564 C 189.525 51.539,189.460 51.394,189.211 51.704 M211.500 52.583 C 211.500 53.547,211.720 53.806,211.907 53.062 C 212.036 52.549,211.875 51.667,211.653 51.667 C 211.569 51.667,211.500 52.079,211.500 52.583 M197.979 64.384 C 197.392 65.327,198.041 67.346,199.964 70.563 L 200.550 71.542 200.855 71.146 C 201.022 70.928,201.161 70.707,201.163 70.654 C 201.165 70.601,201.617 69.751,202.167 68.764 C 203.132 67.031,203.167 66.927,203.167 65.760 L 203.167 64.551 201.099 64.631 C 199.836 64.679,198.831 64.641,198.516 64.531 C 198.232 64.432,197.991 64.366,197.979 64.384 M194.858 68.925 C 193.393 70.494,193.388 69.758,194.897 75.188 C 195.091 75.888,195.310 76.488,195.383 76.522 C 195.600 76.623,199.151 73.607,199.159 73.314 C 199.166 73.056,196.517 68.117,196.202 67.802 C 196.109 67.709,195.581 68.151,194.858 68.925 M204.887 67.861 C 204.789 67.983,204.047 69.274,203.237 70.729 L 201.765 73.375 202.191 73.729 C 202.426 73.924,203.301 74.665,204.135 75.375 C 204.970 76.085,205.685 76.667,205.724 76.667 C 205.816 76.667,206.039 75.938,206.642 73.667 C 206.825 72.979,207.092 71.982,207.237 71.450 C 207.382 70.919,207.500 70.431,207.499 70.367 C 207.498 70.000,205.052 67.654,204.887 67.861 M195.612 79.001 C 194.493 79.959,194.299 80.005,194.050 79.375 C 193.907 79.013,193.865 79.467,193.851 81.538 L 193.833 84.159 194.952 85.082 C 196.429 86.300,196.331 86.388,196.994 83.250 C 197.110 82.700,197.278 82.004,197.367 81.704 C 197.524 81.173,197.503 81.020,196.970 78.792 C 196.781 78.003,196.777 78.004,195.612 79.001 M203.941 79.708 C 203.662 81.210,203.664 81.289,203.997 82.750 C 204.186 83.575,204.424 84.644,204.526 85.125 C 204.753 86.187,204.779 86.189,206.005 85.246 C 207.293 84.255,207.217 84.473,207.349 81.420 C 207.476 78.472,207.464 78.365,207.102 79.232 C 206.781 80.000,206.744 79.995,205.500 79.000 C 204.180 77.944,204.277 77.900,203.941 79.708 " stroke="none" fill="#fbfbfb" fill-rule="evenodd"></path><path id="path2" d="M243.249 53.333 C 243.249 76.754,243.268 86.335,243.292 74.625 C 243.315 62.915,243.315 43.752,243.292 32.042 C 243.268 20.331,243.249 29.912,243.249 53.333 M203.833 25.000 L 203.833 31.000 205.500 31.000 L 207.167 31.000 207.167 25.000 L 207.167 19.000 205.500 19.000 L 203.833 19.000 203.833 25.000 M198.778 22.111 C 198.717 22.172,198.667 24.200,198.667 26.617 L 198.667 31.012 200.375 30.964 L 202.083 30.917 202.128 26.687 C 202.159 23.707,202.116 22.390,201.982 22.229 C 201.784 21.989,199.002 21.887,198.778 22.111 M193.617 24.939 C 193.553 25.003,193.500 26.396,193.500 28.034 L 193.500 31.012 195.208 30.964 L 196.917 30.917 196.917 27.917 L 196.917 24.917 195.325 24.869 C 194.450 24.843,193.681 24.875,193.617 24.939 M197.667 35.825 C 197.529 35.902,197.004 36.056,196.500 36.168 C 191.505 37.278,188.840 42.130,190.339 47.382 L 190.519 48.013 191.039 47.576 C 192.074 46.705,193.117 46.333,194.526 46.333 C 195.514 46.333,195.965 46.254,196.417 46.000 C 196.936 45.708,197.319 45.667,199.499 45.667 C 202.772 45.667,203.440 45.441,205.046 43.792 L 206.175 42.632 206.712 42.888 C 207.817 43.414,209.167 45.152,210.108 47.259 C 210.672 48.523,210.752 48.551,211.151 47.620 C 212.720 43.960,211.043 40.474,207.294 39.601 C 206.988 39.530,206.731 39.286,206.515 38.864 C 205.809 37.478,204.323 36.525,202.309 36.164 C 201.726 36.059,201.020 35.905,200.738 35.820 C 200.109 35.632,198.009 35.635,197.667 35.825 M200.333 35.983 C 200.333 36.066,200.652 36.171,201.042 36.217 C 202.319 36.369,202.965 36.579,202.593 36.723 C 202.299 36.836,202.319 36.878,202.805 37.174 C 203.374 37.520,204.167 37.612,204.167 37.333 C 204.167 37.242,204.287 37.167,204.434 37.167 C 204.609 37.167,204.667 37.258,204.602 37.428 C 204.528 37.622,204.579 37.664,204.804 37.593 C 204.998 37.531,205.246 37.646,205.499 37.915 C 205.715 38.145,205.803 38.333,205.696 38.333 C 205.588 38.333,205.500 38.258,205.500 38.167 C 205.500 37.848,205.205 38.002,205.109 38.371 C 205.007 38.760,205.541 39.500,205.925 39.500 C 206.036 39.500,206.221 39.614,206.336 39.754 C 206.465 39.908,206.676 39.967,206.877 39.903 C 207.212 39.797,207.290 39.823,208.735 40.519 C 209.837 41.050,211.699 42.925,210.771 42.568 C 210.472 42.454,210.293 43.333,210.552 43.646 C 210.657 43.772,210.720 44.089,210.692 44.351 C 210.621 45.029,210.803 45.501,211.092 45.390 C 211.274 45.320,211.330 45.434,211.320 45.857 C 211.305 46.526,210.699 48.276,210.680 47.708 C 210.672 47.502,210.592 47.333,210.500 47.333 C 210.408 47.333,210.333 47.183,210.333 47.000 C 210.333 46.817,210.258 46.667,210.167 46.667 C 210.075 46.667,210.000 46.517,210.000 46.333 C 210.000 46.150,209.916 46.000,209.813 46.000 C 209.692 46.000,209.662 45.817,209.728 45.487 C 209.800 45.123,209.771 44.993,209.628 45.041 C 209.388 45.121,208.668 44.442,208.664 44.133 C 208.663 44.014,208.232 43.599,207.706 43.211 C 206.478 42.305,205.842 42.261,205.355 43.049 C 204.702 44.106,203.464 44.950,202.853 44.756 C 202.644 44.690,202.500 44.717,202.500 44.822 C 202.500 44.920,202.313 45.000,202.083 45.000 C 201.824 45.000,201.667 45.094,201.667 45.250 C 201.667 45.435,201.473 45.500,200.922 45.500 C 200.338 45.500,200.197 45.448,200.270 45.257 C 200.410 44.893,199.630 44.758,199.060 45.049 C 198.798 45.182,198.152 45.343,197.625 45.407 C 197.098 45.472,196.667 45.594,196.667 45.679 C 196.667 45.764,196.517 45.833,196.333 45.833 C 196.150 45.833,196.000 45.908,196.000 46.000 C 196.000 46.101,195.306 46.167,194.250 46.167 C 193.287 46.167,192.500 46.223,192.500 46.293 C 192.500 46.362,192.256 46.527,191.958 46.658 C 191.660 46.790,191.272 47.033,191.095 47.198 C 190.598 47.660,190.333 46.689,190.359 44.500 C 190.370 43.538,190.412 42.938,190.453 43.167 C 190.578 43.863,190.787 43.897,190.998 43.255 C 191.169 42.739,191.159 42.601,190.933 42.351 C 190.638 42.026,190.572 41.078,190.833 40.917 C 190.925 40.860,191.000 40.668,191.000 40.490 C 191.000 40.312,191.075 40.167,191.167 40.167 C 191.258 40.167,191.333 40.059,191.333 39.928 C 191.333 39.066,193.857 37.286,194.301 37.835 C 194.700 38.328,195.000 38.144,195.000 37.407 C 195.000 36.906,195.053 36.833,195.417 36.833 C 195.646 36.833,195.833 36.758,195.833 36.667 C 195.833 36.575,196.091 36.500,196.407 36.500 C 196.722 36.500,197.027 36.425,197.083 36.333 C 197.140 36.242,197.369 36.167,197.593 36.167 C 197.817 36.167,198.000 36.092,198.000 36.000 C 198.000 35.905,198.500 35.833,199.167 35.833 C 199.808 35.833,200.333 35.901,200.333 35.983 M195.740 39.017 C 195.557 39.311,196.285 39.948,196.528 39.706 C 196.680 39.553,196.656 39.431,196.420 39.171 C 196.075 38.789,195.904 38.751,195.740 39.017 M207.277 40.112 C 207.225 40.164,207.470 40.484,207.823 40.823 C 208.175 41.162,208.495 41.584,208.533 41.761 C 208.572 41.938,208.704 42.061,208.828 42.033 C 208.952 42.005,209.112 42.078,209.184 42.195 C 209.256 42.311,209.370 42.352,209.438 42.284 C 209.505 42.217,209.315 41.909,209.016 41.600 C 208.628 41.200,208.535 41.012,208.694 40.949 C 208.844 40.888,208.822 40.855,208.625 40.846 C 208.465 40.839,208.333 40.758,208.333 40.667 C 208.333 40.575,208.226 40.500,208.095 40.500 C 207.964 40.500,207.748 40.391,207.615 40.258 C 207.482 40.125,207.330 40.059,207.277 40.112 M198.060 40.750 C 197.913 41.134,198.120 41.500,198.485 41.500 C 198.962 41.500,199.077 41.195,198.740 40.823 C 198.390 40.435,198.189 40.414,198.060 40.750 M203.250 41.000 C 203.183 41.108,203.204 41.271,203.296 41.362 C 203.407 41.473,203.503 41.464,203.583 41.333 C 203.650 41.226,203.629 41.063,203.538 40.971 C 203.427 40.860,203.331 40.870,203.250 41.000 M192.078 44.183 C 191.942 44.612,192.091 44.765,192.792 44.912 C 193.457 45.052,193.478 44.868,192.866 44.281 C 192.303 43.742,192.221 43.732,192.078 44.183 M196.875 47.448 C 197.035 47.490,197.298 47.490,197.458 47.448 C 197.619 47.406,197.487 47.372,197.167 47.372 C 196.846 47.372,196.715 47.406,196.875 47.448 M200.121 47.454 C 200.417 47.490,200.942 47.491,201.288 47.455 C 201.634 47.419,201.392 47.389,200.750 47.388 C 200.108 47.387,199.825 47.417,200.121 47.454 M191.398 52.250 C 191.398 53.442,191.425 53.907,191.457 53.285 C 191.489 52.662,191.489 51.687,191.457 51.118 C 191.424 50.549,191.398 51.058,191.398 52.250 M193.917 60.167 C 194.368 60.625,194.775 61.000,194.821 61.000 C 194.867 61.000,194.535 60.625,194.083 60.167 C 193.632 59.708,193.225 59.333,193.179 59.333 C 193.133 59.333,193.465 59.708,193.917 60.167 M199.792 64.622 C 200.181 64.657,200.819 64.657,201.208 64.622 C 201.598 64.587,201.279 64.558,200.500 64.558 C 199.721 64.558,199.402 64.587,199.792 64.622 M203.224 65.750 C 203.224 66.483,203.254 66.763,203.289 66.371 C 203.324 65.979,203.324 65.379,203.288 65.037 C 203.252 64.696,203.223 65.017,203.224 65.750 M205.167 67.719 C 205.167 67.748,205.410 67.991,205.708 68.260 L 206.250 68.750 205.760 68.208 C 205.304 67.703,205.167 67.590,205.167 67.719 M195.075 68.542 L 194.417 69.250 195.125 68.591 C 195.515 68.229,195.833 67.910,195.833 67.883 C 195.833 67.757,195.688 67.883,195.075 68.542 M190.833 71.662 C 190.604 71.737,189.554 72.110,188.500 72.491 C 187.446 72.873,186.246 73.302,185.833 73.445 C 184.308 73.974,184.265 74.019,184.032 75.359 C 183.915 76.032,183.753 76.921,183.672 77.333 C 183.591 77.746,183.439 78.571,183.333 79.167 C 183.228 79.762,183.078 80.587,183.000 81.000 C 182.922 81.412,182.772 82.237,182.667 82.833 C 182.561 83.429,182.411 84.254,182.333 84.667 C 182.256 85.079,182.106 85.904,182.000 86.500 C 181.894 87.096,181.743 87.921,181.664 88.333 C 181.209 90.700,181.125 91.317,181.219 91.563 C 181.344 91.888,199.843 91.908,199.938 91.583 C 199.965 91.492,199.496 91.042,198.897 90.583 C 198.297 90.125,197.670 89.638,197.503 89.500 C 197.335 89.362,196.072 88.363,194.695 87.278 L 192.193 85.306 192.090 84.111 C 192.034 83.454,191.934 80.368,191.869 77.252 C 191.740 71.109,191.784 71.350,190.833 71.662 M209.324 72.604 C 209.291 76.452,209.017 84.957,208.919 85.167 C 208.855 85.304,207.088 86.767,204.993 88.417 C 202.898 90.067,201.205 91.492,201.231 91.583 C 201.289 91.789,219.481 91.895,219.800 91.692 C 220.022 91.550,219.991 91.232,219.493 88.583 C 219.389 88.033,219.242 87.058,219.165 86.417 C 219.089 85.775,218.942 84.912,218.839 84.500 C 218.736 84.087,218.247 81.582,217.751 78.932 C 217.216 76.066,216.764 74.060,216.636 73.981 C 216.519 73.909,215.859 73.654,215.169 73.415 C 213.897 72.975,212.868 72.600,211.292 72.001 C 210.810 71.818,210.173 71.621,209.875 71.564 L 209.333 71.458 209.324 72.604 M193.614 78.108 C 193.551 78.171,193.507 78.453,193.517 78.736 C 193.532 79.227,193.539 79.231,193.654 78.833 L 193.775 78.417 193.902 78.804 C 193.973 79.017,194.062 79.160,194.101 79.121 C 194.140 79.082,194.072 78.813,193.950 78.522 C 193.828 78.232,193.677 78.046,193.614 78.108 M207.390 82.250 C 207.391 82.983,207.420 83.263,207.456 82.871 C 207.491 82.479,207.490 81.879,207.454 81.537 C 207.419 81.196,207.390 81.517,207.390 82.250 M193.725 82.500 C 193.725 83.279,193.754 83.598,193.789 83.208 C 193.824 82.819,193.824 82.181,193.789 81.792 C 193.754 81.402,193.725 81.721,193.725 82.500 M215.261 87.400 C 215.316 87.620,215.336 87.976,215.305 88.191 L 215.250 88.583 211.917 88.583 L 208.583 88.583 208.528 88.191 C 208.497 87.976,208.518 87.620,208.573 87.400 L 208.673 87.000 211.917 87.000 L 215.160 87.000 215.261 87.400 " stroke="none" fill="#44cad2" fill-rule="evenodd"></path><path id="path3" d="M189.883 44.167 C 189.883 44.671,189.915 44.877,189.953 44.625 C 189.991 44.373,189.991 43.960,189.953 43.708 C 189.915 43.456,189.883 43.663,189.883 44.167 M171.708 46.288 C 172.052 46.324,172.615 46.324,172.958 46.288 C 173.302 46.252,173.021 46.223,172.333 46.223 C 171.646 46.223,171.365 46.252,171.708 46.288 M227.333 46.270 C 221.618 47.360,219.357 54.363,223.355 58.591 C 227.235 62.693,234.331 60.878,235.743 55.423 C 237.083 50.245,232.521 45.280,227.333 46.270 M170.167 46.448 C 168.332 47.099,165.384 49.607,165.876 50.098 C 165.917 50.140,166.163 49.853,166.422 49.462 C 167.294 48.142,168.726 47.104,170.417 46.567 C 170.783 46.451,170.933 46.357,170.750 46.358 C 170.567 46.359,170.304 46.400,170.167 46.448 M174.083 46.500 C 174.582 46.714,174.998 46.714,174.667 46.500 C 174.529 46.411,174.267 46.343,174.083 46.348 L 173.750 46.357 174.083 46.500 M175.667 47.074 C 176.784 47.658,177.962 48.771,178.533 49.783 C 178.812 50.277,179.072 50.650,179.112 50.611 C 179.591 50.131,176.018 46.641,175.083 46.676 C 174.992 46.679,175.254 46.858,175.667 47.074 M172.417 47.982 C 173.041 48.077,173.087 48.122,173.134 48.688 C 173.174 49.173,173.322 49.396,173.884 49.825 L 174.583 50.357 173.958 49.786 C 173.507 49.373,173.333 49.078,173.333 48.724 C 173.333 48.071,173.056 47.828,172.342 47.857 L 171.750 47.881 172.417 47.982 M229.500 51.143 L 229.500 54.453 227.397 55.847 L 225.294 57.240 224.898 56.745 C 224.289 55.985,224.384 55.829,226.167 54.667 L 227.828 53.583 227.831 50.819 C 227.834 47.715,227.796 47.833,228.778 47.833 L 229.500 47.833 229.500 51.143 M171.397 48.240 C 171.347 48.372,171.335 48.616,171.370 48.782 C 171.411 48.970,171.468 48.880,171.522 48.542 C 171.613 47.974,171.554 47.832,171.397 48.240 M170.787 49.680 C 169.837 50.462,169.396 51.561,169.668 52.465 C 169.781 52.837,169.807 52.761,169.819 52.033 C 169.836 50.959,170.120 50.373,170.951 49.694 C 171.299 49.410,171.544 49.175,171.496 49.172 C 171.448 49.169,171.129 49.398,170.787 49.680 M165.506 50.734 C 165.174 51.608,165.159 52.069,165.489 51.260 C 165.674 50.807,165.792 50.403,165.751 50.362 C 165.710 50.321,165.599 50.488,165.506 50.734 M174.581 50.750 C 175.017 51.864,173.858 52.347,173.055 51.387 L 172.663 50.917 172.957 51.463 C 173.411 52.310,174.931 52.226,174.890 51.357 C 174.876 51.049,174.771 50.711,174.657 50.607 C 174.496 50.459,174.480 50.490,174.581 50.750 M179.231 51.167 C 179.521 52.231,179.664 53.496,179.590 54.333 C 179.533 54.979,179.552 55.127,179.654 54.833 C 179.955 53.973,179.676 51.262,179.245 50.867 C 179.175 50.803,179.169 50.938,179.231 51.167 M189.665 52.299 L 189.746 53.417 189.799 52.434 C 189.828 51.894,189.791 51.391,189.717 51.317 C 189.644 51.243,189.620 51.685,189.665 52.299 M209.729 53.250 C 209.729 54.258,209.757 54.649,209.790 54.119 C 209.823 53.588,209.823 52.763,209.789 52.286 C 209.756 51.808,209.729 52.242,209.729 53.250 M171.344 51.875 C 171.328 52.304,171.892 52.791,172.633 52.991 C 174.186 53.409,175.090 54.515,174.928 55.800 C 174.871 56.252,174.898 56.479,175.002 56.415 C 176.011 55.792,174.507 53.404,172.750 52.838 C 171.958 52.583,171.677 52.378,171.492 51.922 C 171.377 51.639,171.353 51.631,171.344 51.875 M165.057 53.583 C 165.058 54.317,165.087 54.596,165.122 54.204 C 165.157 53.812,165.157 53.212,165.121 52.871 C 165.085 52.529,165.057 52.850,165.057 53.583 M169.985 53.280 C 170.185 53.682,171.135 54.420,171.274 54.282 C 171.322 54.233,171.187 54.106,170.973 53.998 C 170.759 53.890,170.408 53.603,170.194 53.359 C 169.877 52.999,169.838 52.985,169.985 53.280 M171.667 54.500 C 171.804 54.589,172.029 54.662,172.167 54.662 C 172.389 54.662,172.389 54.644,172.167 54.500 C 172.029 54.411,171.804 54.338,171.667 54.338 C 171.444 54.338,171.444 54.356,171.667 54.500 M172.796 54.926 C 173.199 55.208,173.285 55.815,172.967 56.133 C 172.631 56.469,172.027 56.363,171.735 55.917 C 171.387 55.386,169.947 55.295,169.758 55.792 C 169.669 56.026,169.689 56.042,169.857 55.875 C 170.200 55.534,171.459 55.607,171.575 55.975 C 171.876 56.921,173.323 56.585,173.331 55.567 C 173.333 55.224,172.866 54.667,172.575 54.667 C 172.493 54.667,172.593 54.783,172.796 54.926 M165.181 55.250 C 165.176 55.433,165.244 55.696,165.333 55.833 C 165.547 56.165,165.547 55.748,165.333 55.250 L 165.190 54.917 165.181 55.250 M165.500 56.230 C 165.500 56.409,165.996 57.333,166.092 57.333 C 166.138 57.333,166.051 57.090,165.900 56.792 C 165.590 56.183,165.500 56.056,165.500 56.230 M169.847 56.323 C 169.827 56.668,170.516 57.619,170.957 57.855 C 171.230 58.001,171.341 58.221,171.360 58.653 L 171.387 59.250 171.455 58.687 C 171.515 58.203,171.439 58.054,170.922 57.628 C 170.591 57.355,170.217 56.895,170.090 56.607 C 169.964 56.319,169.854 56.191,169.847 56.323 M178.693 57.025 C 177.832 58.521,176.469 59.678,174.833 60.300 C 174.329 60.492,174.056 60.653,174.226 60.658 C 175.562 60.695,179.781 57.059,179.143 56.420 C 179.107 56.385,178.905 56.657,178.693 57.025 M174.352 57.178 C 174.146 57.456,173.795 57.767,173.572 57.869 C 173.245 58.018,173.167 58.177,173.167 58.693 L 173.167 59.333 172.292 59.336 C 171.665 59.338,171.488 59.384,171.667 59.500 C 172.409 59.980,173.333 59.583,173.333 58.785 C 173.333 58.423,173.529 58.126,174.125 57.585 C 174.560 57.190,174.874 56.822,174.821 56.768 C 174.769 56.715,174.558 56.899,174.352 57.178 M166.300 57.769 C 167.290 59.629,171.243 61.398,173.252 60.881 C 173.868 60.722,173.819 60.709,172.582 60.705 C 170.236 60.698,168.417 59.934,166.964 58.347 C 166.496 57.835,166.197 57.575,166.300 57.769 M199.963 62.956 C 200.355 62.991,200.955 62.990,201.296 62.954 C 201.637 62.919,201.317 62.890,200.583 62.890 C 199.850 62.891,199.571 62.920,199.963 62.956 M197.723 65.667 C 197.723 66.354,197.752 66.635,197.788 66.292 C 197.824 65.948,197.824 65.385,197.788 65.042 C 197.752 64.698,197.723 64.979,197.723 65.667 M195.645 67.792 C 195.438 68.056,195.444 68.062,195.706 67.856 C 195.865 67.732,196.113 67.674,196.257 67.729 C 196.407 67.787,196.474 67.760,196.415 67.665 C 196.258 67.410,195.898 67.469,195.645 67.792 M206.842 69.425 C 207.250 69.889,207.617 70.242,207.659 70.211 C 207.700 70.180,207.366 69.801,206.917 69.369 L 206.100 68.583 206.842 69.425 M199.287 75.712 C 198.757 76.191,198.331 76.696,198.339 76.833 C 198.349 76.996,198.403 76.964,198.493 76.742 C 198.790 76.008,200.483 74.912,200.909 75.178 C 201.905 75.800,202.500 76.490,202.511 77.037 C 202.520 77.546,202.532 77.557,202.677 77.194 C 202.878 76.692,202.762 76.503,201.691 75.589 C 200.582 74.642,200.464 74.648,199.287 75.712 M198.533 77.500 C 198.533 77.729,198.593 78.104,198.667 78.333 L 198.800 78.750 198.800 78.333 C 198.800 78.104,198.740 77.729,198.667 77.500 L 198.533 77.083 198.533 77.500 M202.241 78.407 C 202.178 78.742,202.164 79.053,202.210 79.099 C 202.256 79.145,202.345 78.909,202.407 78.574 C 202.470 78.240,202.484 77.928,202.438 77.883 C 202.392 77.837,202.303 78.073,202.241 78.407 M198.936 79.415 C 199.068 80.350,199.038 80.333,200.575 80.333 C 202.019 80.333,202.193 80.245,202.150 79.528 C 202.141 79.371,202.083 79.432,202.018 79.667 C 201.906 80.066,201.847 80.083,200.591 80.083 L 199.280 80.083 199.061 79.417 L 198.842 78.750 198.936 79.415 M193.559 80.583 C 193.559 81.408,193.587 81.767,193.622 81.380 C 193.657 80.993,193.657 80.318,193.623 79.880 C 193.588 79.442,193.560 79.758,193.559 80.583 M198.921 82.875 C 198.727 83.459,198.503 84.446,198.514 84.667 C 198.521 84.804,198.652 84.467,198.806 83.917 L 199.085 82.917 200.576 82.917 L 202.067 82.917 202.267 83.667 C 202.377 84.079,202.475 84.259,202.484 84.067 C 202.493 83.874,202.418 83.480,202.317 83.192 L 202.134 82.667 200.562 82.667 C 199.452 82.667,198.969 82.728,198.921 82.875 M193.680 84.016 C 193.673 84.162,193.835 84.425,194.042 84.599 C 194.413 84.914,194.414 84.914,194.147 84.583 C 193.998 84.400,193.835 84.137,193.785 84.000 C 193.707 83.788,193.691 83.790,193.680 84.016 M202.528 84.750 C 202.531 84.933,202.593 85.271,202.667 85.500 L 202.800 85.917 202.805 85.500 C 202.808 85.271,202.745 84.933,202.667 84.750 L 202.523 84.417 202.528 84.750 M198.241 85.574 C 198.178 85.909,198.164 86.220,198.210 86.266 C 198.256 86.311,198.345 86.075,198.407 85.741 C 198.470 85.406,198.484 85.095,198.438 85.049 C 198.392 85.003,198.303 85.240,198.241 85.574 M202.862 86.333 C 202.859 86.563,202.921 86.900,203.000 87.083 L 203.143 87.417 203.138 87.083 C 203.136 86.900,203.073 86.563,203.000 86.333 L 202.867 85.917 202.862 86.333 M197.930 86.924 C 197.790 87.480,197.822 87.521,199.279 88.679 L 200.525 89.669 201.282 89.126 C 201.699 88.828,202.312 88.334,202.645 88.029 C 202.978 87.724,202.699 87.893,202.025 88.404 C 200.525 89.541,200.573 89.541,199.186 88.421 C 198.167 87.598,198.064 87.459,198.131 87.004 C 198.220 86.392,198.078 86.335,197.930 86.924 " stroke="none" fill="#e15b34" fill-rule="evenodd"></path><path id="path4" d="M157.749 53.333 C 157.749 76.754,157.768 86.335,157.792 74.625 C 157.815 62.915,157.815 43.752,157.792 32.042 C 157.768 20.331,157.749 29.912,157.749 53.333 M170.417 46.567 C 162.319 49.139,164.039 60.748,172.510 60.693 C 178.044 60.657,181.379 54.648,178.552 49.806 C 176.972 47.100,173.319 45.646,170.417 46.567 M198.125 47.454 C 198.423 47.491,198.910 47.491,199.208 47.454 C 199.506 47.417,199.262 47.387,198.667 47.387 C 198.071 47.387,197.827 47.417,198.125 47.454 M173.133 48.033 C 173.243 48.143,173.333 48.441,173.333 48.696 C 173.333 49.020,173.552 49.377,174.065 49.890 C 175.308 51.132,175.294 52.001,174.032 51.999 C 173.338 51.998,173.218 51.942,172.966 51.499 C 172.648 50.940,172.259 50.865,171.805 51.276 C 171.180 51.841,171.550 52.453,172.750 52.839 C 175.368 53.679,175.965 56.030,173.990 57.720 C 173.501 58.139,173.333 58.407,173.333 58.774 C 173.333 59.410,173.064 59.667,172.395 59.667 C 171.709 59.667,171.333 59.289,171.333 58.600 C 171.333 58.206,171.230 58.001,170.957 57.855 C 170.281 57.493,169.743 56.482,169.814 55.708 C 169.854 55.279,171.429 55.450,171.735 55.917 C 172.196 56.620,173.167 56.385,173.167 55.570 C 173.167 55.105,172.933 54.920,171.913 54.574 C 169.322 53.698,168.782 51.295,170.809 49.666 C 171.330 49.247,171.435 49.069,171.368 48.716 C 171.228 47.984,172.566 47.466,173.133 48.033 M189.243 51.511 C 189.161 51.645,189.184 51.676,189.308 51.599 C 189.430 51.523,189.507 51.620,189.519 51.865 C 189.535 52.175,189.554 52.189,189.618 51.941 C 189.718 51.553,189.425 51.217,189.243 51.511 M209.561 53.250 C 209.561 54.167,209.589 54.520,209.623 54.036 C 209.657 53.552,209.656 52.802,209.622 52.369 C 209.588 51.937,209.560 52.333,209.561 53.250 M199.958 62.787 C 200.256 62.824,200.744 62.824,201.042 62.787 C 201.340 62.750,201.096 62.720,200.500 62.720 C 199.904 62.720,199.660 62.750,199.958 62.787 M199.458 75.765 C 198.931 76.184,198.500 76.577,198.500 76.639 C 198.500 76.804,198.975 79.006,199.135 79.583 L 199.274 80.083 200.595 80.083 L 201.917 80.083 202.136 79.083 C 202.648 76.743,202.612 76.504,201.636 75.708 C 200.567 74.837,200.626 74.836,199.458 75.765 M193.667 79.833 C 193.667 80.597,193.700 81.189,193.740 81.149 C 193.861 81.028,193.893 78.671,193.775 78.553 C 193.716 78.493,193.667 79.069,193.667 79.833 M207.379 80.333 C 207.379 80.746,207.411 80.915,207.451 80.708 C 207.491 80.502,207.491 80.165,207.451 79.958 C 207.411 79.752,207.379 79.921,207.379 80.333 M199.020 83.202 C 198.905 83.508,198.443 85.503,198.093 87.203 C 198.028 87.518,200.129 89.333,200.557 89.333 C 200.690 89.333,201.322 88.924,201.962 88.424 L 203.124 87.514 202.971 86.882 C 202.887 86.534,202.651 85.500,202.447 84.583 L 202.075 82.917 200.619 82.868 C 199.234 82.823,199.156 82.839,199.020 83.202 " stroke="none" fill="#ebbe51" fill-rule="evenodd"></path></g></svg>